<?xml version="1.0" encoding="utf-8"?>
<!-- Generator: Adobe Illustrator 16.0.0, SVG Export Plug-In . SVG Version: 6.00 Build 0)  -->
<!DOCTYPE svg PUBLIC "-//W3C//DTD SVG 1.1//EN" "http://www.w3.org/Graphics/SVG/1.1/DTD/svg11.dtd">
<svg version="1.1" id="Layer_1" xmlns="http://www.w3.org/2000/svg" xmlns:xlink="http://www.w3.org/1999/xlink" x="0px" y="0px"
	 width="158.88px" height="47.94px" viewBox="0 0 158.88 47.94" enable-background="new 0 0 158.88 47.94" xml:space="preserve">
<g>
	<g>
		<path fill="#FFFFFF" stroke="#FFFFFF" stroke-miterlimit="10" d="M44.526,10.951l26.566-8.074l25.537,8.789l-5.79,2.536
			c0,0,2.752,2.037,0.443,8.604c0.436,0.519,1.074,1.684-0.438,2.572c0.031,0.832,0.378,3.731,2.35,5.56
			c-1.047,0.635-2.655,2.121-3.729,0.438c-0.722-1.815-1.57-3.805-0.122-6.416c0,0-0.837-1.692,0.502-2.456
			c0.266-0.843,1.895-4.946-0.645-7.645c-1.169,0.52-17.442,7.255-17.442,7.255L44.526,10.951z"/>
		<path fill="#FFFFFF" stroke="#FFFFFF" stroke-miterlimit="10" d="M56.766,17.089c0,0-1.185,3.255-1.108,6.878
			c1.185-0.104,9.342-1.362,14.718,7.234c0,0,4.947-7.558,15.425-5.574c0.355-1.619,0.672-5.851-0.299-7.955
			C83.035,18.478,71.8,23.241,71.8,23.241L56.766,17.089z"/>
	</g>
	<rect x="3.712" y="28.554" fill="none" width="158.876" height="22.258"/>
	<text transform="matrix(1 0 0 1 3.7124 40.7686)" fill="#FFFFFF" font-family="'OptimusPrinceps'" font-size="19.5428">Alumni Connect</text>
</g>
</svg>
